<svg width="98" height="98" viewBox="0 0 98 98" fill="none" xmlns="http://www.w3.org/2000/svg">
<g id="hanger-fashion" clip-path="url(#clip0_17_272)">
<g id="Group">
<g id="Group_2">
<path id="Vector" d="M97.8411 75.9249C97.5146 73.9667 96.2093 72.1717 94.5774 70.8664L55.7403 41.4876V33.0082C55.7403 30.5605 53.7821 28.6023 51.3344 28.6023H50.6817V25.1755C55.2508 24.3595 58.8409 20.4432 58.8409 15.5477C58.8409 10.1627 54.435 5.75684 49.05 5.75684C43.665 5.75684 39.2591 10.1627 39.2591 15.5477C39.2591 16.5268 39.9118 17.1795 40.8909 17.1795C41.87 17.1795 42.5226 16.5268 42.5226 15.5477C42.5226 11.9578 45.4599 9.02053 49.0498 9.02053C52.6397 9.02053 55.577 11.9578 55.577 15.5477C55.577 19.1376 52.6397 22.0749 49.0498 22.0749C48.0707 22.0749 47.4181 22.8909 47.4181 23.87V28.6023H46.9285C44.4808 28.6023 42.5226 30.5605 42.5226 33.0082V41.2407L3.3591 70.8664C1.56404 72.1719 0.421838 73.9667 0.0954113 75.9249C-0.231015 78.3726 0.258529 80.8204 1.89047 82.7785C3.52222 84.5736 5.80682 85.7158 8.25454 85.7158H21.3091C21.3091 89.3057 24.2464 92.243 27.8363 92.243C31.4262 92.243 34.3635 89.3057 34.3635 85.7158H63.7361C63.7361 89.3057 66.6734 92.243 70.2633 92.243C73.8532 92.243 76.7905 89.3057 76.7905 85.7158H89.8451C92.2928 85.7158 94.5774 84.5736 96.046 82.7785C97.678 80.8204 98.3306 78.3726 97.8411 75.9249ZM45.623 33.0082C45.623 32.3555 46.1125 31.866 46.7652 31.866H48.2782C48.5017 31.9711 48.761 32.0291 49.0498 32.0291C49.311 32.0291 49.548 31.9696 49.7564 31.866H51.1711C51.8238 31.866 52.3133 32.3555 52.3133 33.0082V38.8827L50.5182 37.4141C50.1023 37.0813 49.559 36.9192 48.9968 36.9257C48.8381 36.9236 48.6796 36.9396 48.5232 36.9718C48.1382 37.041 47.7582 37.1871 47.4179 37.4141L45.6228 38.8827L45.623 33.0082ZM27.8363 88.9793C26.0412 88.9793 24.5726 87.5107 24.5726 85.7156V79.1884V75.9247C24.5726 74.1297 26.0412 72.661 27.8363 72.661C29.6314 72.661 31.1 74.1297 31.1 75.9247V79.1884V85.7156C31.0998 87.5107 29.6312 88.9793 27.8363 88.9793ZM63.7361 75.9249H34.3635C34.3635 72.335 31.4262 69.3977 27.8363 69.3977C24.2464 69.3977 21.3091 72.335 21.3091 75.9249H13.15L49.0498 48.6736L84.9496 75.9249H76.7905C76.7905 72.335 73.8532 69.3977 70.2633 69.3977C66.6734 69.3977 63.7361 72.3348 63.7361 75.9249ZM34.3635 82.4521V79.1884H63.7361V82.4521H34.3635ZM70.2633 88.9793C68.4682 88.9793 66.9996 87.5107 66.9996 85.7156V79.1884V75.9247C66.9996 74.1297 68.4682 72.661 70.2633 72.661C72.0584 72.661 73.527 74.1297 73.527 75.9247V79.1884V85.7156C73.527 87.5107 72.0584 88.9793 70.2633 88.9793ZM93.5983 80.6571C92.6192 81.7993 91.3137 82.4521 89.8451 82.4521H76.7905V79.1884H89.8451H90.9873L91.8032 76.7407L50.192 45.2468C49.5393 44.7572 48.5603 44.7572 47.9074 45.2468L7.765 75.7616C7.11233 76.2512 6.78591 77.0671 7.11234 77.8829C7.43876 78.6987 8.09142 79.1884 8.90739 79.1884H21.3091V82.4521H8.25454C6.78591 82.4521 5.48039 81.7995 4.50131 80.6571C3.52222 79.5147 3.19579 78.0462 3.52222 76.5776C3.68534 75.4354 4.33819 74.293 5.48039 73.4772L44.2439 44.1505L49.1299 40.5753L92.619 73.4772C93.5981 74.2932 94.4141 75.4354 94.5772 76.5776C94.9038 78.0462 94.5774 79.5148 93.5983 80.6571Z" fill="#9697AB"/>
</g>
</g>
</g>
<defs>
<clipPath id="clip0_17_272">
<rect width="98" height="98" fill="white"/>
</clipPath>
</defs>
</svg>
