<svg width="80" height="80" viewBox="0 0 80 80" fill="none" xmlns="http://www.w3.org/2000/svg">
<g id="ball-of-wool" clip-path="url(#clip0_14_142)">
<g id="Group">
<g id="Group_2">
<g id="Group_3">
<path id="Vector" d="M79.6007 77.6706L65.2246 64.0932C65.1992 64.0678 65.1727 64.0447 65.1462 64.0218C68.5524 59.0866 70.5492 53.1042 70.5492 46.6557C70.5492 37.1812 66.242 28.7109 59.4801 23.0945L65.4003 17.1744C66.8705 18.141 68.6371 18.7023 70.5492 18.7023C75.7405 18.7023 79.8669 14.5759 79.8669 9.38453C79.8669 4.19318 75.7405 0.0667725 70.5492 0.0667725C65.3578 0.0667725 61.2314 4.19318 61.2314 9.38453C61.2314 11.6905 62.0469 13.7853 63.4072 15.4028L57.3699 21.4401C57.2935 21.3629 57.2061 21.2922 57.105 21.2315C56.9904 21.1627 56.8717 21.1109 56.7519 21.0737C51.9244 17.893 46.1453 16.0402 39.9336 16.0402C33.3446 16.0402 27.241 18.1234 22.2453 21.6666L16.2381 15.6594C17.7319 14.0101 18.6357 11.8141 18.6357 9.38453C18.6357 4.19318 14.5093 0.0667725 9.31791 0.0667725C4.12641 0.0666165 0 4.19302 0 9.38437C0 14.5757 4.12641 18.7021 9.31776 18.7021C11.1045 18.7021 12.7648 18.2133 14.1745 17.3605L20.1276 23.3135C13.5155 28.9298 9.31776 37.303 9.31776 46.6554C9.31776 53.1014 11.3129 59.0817 14.7167 64.0159L0.399335 77.6706C-0.13306 78.203 -0.13306 79.0017 0.399335 79.5342C0.66561 79.8005 0.931729 79.9336 1.33106 79.9336C1.59734 79.9336 1.99667 79.8005 2.26279 79.5342L16.3141 66.1336C21.93 72.9354 30.4265 77.2714 39.9335 77.2714C49.2509 77.2714 57.5967 73.1052 63.2125 66.536C63.3896 66.4724 63.543 66.3754 63.6674 66.2489L77.604 79.5342C77.8703 79.8005 78.2696 79.9336 78.5357 79.9336C78.9351 79.9336 79.2013 79.8005 79.6007 79.5342C80.1332 79.0017 80.1332 78.203 79.6007 77.6706ZM2.66228 9.38437C2.66228 5.6573 5.59069 2.72874 9.31791 2.72874C13.0451 2.72874 15.9734 5.6573 15.9734 9.38437C15.9734 13.1114 13.045 16.04 9.31776 16.04C5.59053 16.04 2.66228 13.1114 2.66228 9.38437ZM12.3794 51.1815C12.3656 51.1585 12.3504 51.1378 12.3357 51.1163C12.1028 49.6635 11.98 48.1741 11.98 46.6557C11.98 45.3262 12.0749 44.019 12.2544 42.739C13.0121 43.7276 14.0324 44.7258 15.3079 45.724C22.0966 50.7823 34.476 54.6424 48.3197 54.6424C54.5702 54.6424 61.0647 53.9061 67.3355 52.2049C66.4521 56.5926 64.5418 60.6076 61.8657 63.9893C34.174 64.9448 18.9692 60.9344 12.3794 51.1815ZM54.4931 22.7881C49.7052 30.0977 43.6721 37.2757 35.3798 37.3362C32.1223 36.5658 29.268 35.5024 26.9075 34.2426C34.7922 32.5035 40.2645 25.7841 44.5753 19.0877C48.1581 19.6864 51.5101 20.9648 54.4931 22.7881ZM21.8366 34.2024C21.9569 34.3567 22.1141 34.4769 22.3007 34.5579C25.3528 36.7926 29.581 38.681 34.7009 39.8917C34.8331 39.9463 34.9791 39.9817 35.1377 39.9943C38.8829 40.8431 43.0909 41.3312 47.654 41.3312C53.5726 41.3312 59.882 40.5493 66.7085 38.6046C67.4738 41.1543 67.8871 43.8563 67.8871 46.6556C67.8871 47.5771 67.8412 48.488 67.7542 49.3866C67.6643 49.3957 67.5749 49.4161 67.4877 49.4509C54.576 53.0449 30.3496 53.7105 16.9053 43.5939C14.6423 41.8635 13.3113 39.9999 13.3113 38.6689C13.3113 38.5258 13.2935 38.3918 13.2609 38.2673C14.2773 35.0312 15.8659 32.0488 17.9088 29.4388C18.6274 31.0845 19.9692 32.694 21.8366 34.2024ZM65.8366 36.1314C57.2409 38.4956 49.2363 39.0729 42.3766 38.4547C48.2584 35.8063 52.8289 30.1192 56.7132 24.2959C60.7355 27.3189 63.914 31.4025 65.8366 36.1314ZM70.5492 2.72874C74.2763 2.72874 77.2048 5.65715 77.2048 9.38437C77.2048 13.1116 74.2764 16.04 70.5492 16.04C66.8221 16.04 63.8936 13.1116 63.8936 9.38437C63.8936 5.65715 66.822 2.72874 70.5492 2.72874ZM41.5695 18.7511C35.5441 27.7388 29.9843 31.7819 23.4631 32.0022C21.3466 30.3551 20.1586 28.6211 19.9898 27.0696C25.0615 21.9059 32.1221 18.7023 39.9336 18.7023C40.4829 18.7021 41.0279 18.7198 41.5695 18.7511ZM14.011 57.1326C21.4422 63.7254 34.2331 66.7554 53.9102 66.7554C55.7034 66.7554 57.4972 66.7552 59.3959 66.7199C54.3633 71.6023 47.5007 74.6088 39.9335 74.6088C28.198 74.609 18.1558 67.3804 14.011 57.1326Z" fill="#333C4F"/>
<path id="Vector_2" d="M10.649 5.39105C7.72056 5.39105 5.32455 7.78706 5.32455 10.7155C5.32455 11.5141 5.85695 12.0465 6.65562 12.0465C7.45429 12.0465 7.98668 11.5141 7.98668 10.7155C7.98668 9.25118 9.18469 8.05318 10.649 8.05318C11.4476 8.05318 11.98 7.52078 11.98 6.72212C11.98 5.92345 11.4476 5.39105 10.649 5.39105Z" fill="#333C4F"/>
<path id="Vector_3" d="M67.8869 12.0466C68.6856 12.0466 69.218 11.5143 69.218 10.7156C69.218 9.25131 70.416 8.0533 71.8802 8.0533C72.6789 8.0533 73.2113 7.52091 73.2113 6.72224C73.2113 5.92357 72.6789 5.39117 71.8802 5.39117C68.9518 5.39117 66.5558 7.78718 66.5558 10.7156C66.5558 11.5141 67.0882 12.0466 67.8869 12.0466Z" fill="#333C4F"/>
</g>
</g>
</g>
</g>
<defs>
<clipPath id="clip0_14_142">
<rect width="80" height="80" fill="white"/>
</clipPath>
</defs>
</svg>
