<svg width="276" height="96" viewBox="0 0 276 96" fill="none" xmlns="http://www.w3.org/2000/svg">
<path d="M235.232 56.4532C235.906 57.1117 236.668 57.8513 237.069 58.2392C224.309 71.0025 212.244 83.0819 199.904 95.4232C199.582 95.1399 198.888 94.5322 198.214 93.947C200.178 90.3488 228.09 61.984 235.232 56.4532Z" fill="#479CFC"/>
<path d="M160.85 39.6626C159.833 38.8811 159.243 38.4277 158.7 38.0105C158.793 37.5415 158.75 37.1176 158.94 36.891C161.173 34.2335 163.298 31.4668 165.724 28.9978C174.046 20.5352 182.472 12.1732 190.877 3.79162C191.971 2.69739 193.085 1.58166 194.365 0.734597C194.814 0.436567 196.006 0.678844 196.446 1.10288C196.876 1.52589 197.032 2.5528 196.866 3.19174C196.68 3.87558 195.987 4.43933 195.479 5.01285C194.961 5.59121 194.375 6.11482 193.828 6.66581C182.963 17.5358 172.1 28.4058 160.85 39.6626Z" fill="#479CFC"/>
<path d="M38.5178 59.5424C38.2989 59.8619 38.0431 60.3885 37.6513 60.7813C26.6387 71.8194 15.6104 82.8426 4.58994 93.8728C3.30228 95.1614 2.0606 96.6796 0.25027 93.9607C2.1671 90.933 4.32804 88.1292 7.49157 85.7336C11.0683 83.0254 13.7688 79.1633 16.8679 75.82C17.794 74.8206 18.639 73.6403 19.7724 72.9604C21.6442 71.8368 22.802 70.1818 24.2029 68.6079C27.5032 64.9002 31.169 61.4984 34.8835 58.1942C35.8233 57.3579 37.7518 55.8827 38.5178 59.5424Z" fill="#479CFC"/>
<path d="M195.41 57.0042C196.045 57.7409 196.534 58.3135 196.993 58.8556C194.306 62.7861 169.804 87.6973 160.729 95.7252C160.046 95.266 159.291 94.758 158.379 94.1455C160.457 91.1999 162.375 88.6254 165.246 86.4408C168.969 83.6096 171.78 79.5854 175.022 76.1112C175.942 75.1264 176.985 74.2549 177.995 73.359C179.141 72.343 180.354 71.3991 181.466 70.3489C182.966 68.9313 184.39 67.4354 185.865 65.9876C186.558 65.3057 187.594 64.7869 187.936 63.9682C189.402 60.5067 192.626 59.1194 195.41 57.0042Z" fill="#479CFC"/>
<path d="M121.018 39.778C120.313 38.1151 119.459 37.06 119.711 36.514C120.423 34.9703 121.307 33.2371 122.634 32.3012C125.192 30.4947 126.949 27.9975 129.133 25.9438C131.782 23.4526 134.189 20.7708 136.766 18.2559C141.24 13.8878 145.835 9.67113 149.97 4.94934C151.557 3.13609 153.847 1.93931 156.432 0C156.64 1.61885 156.987 2.62124 156.813 3.52393C156.685 4.18249 155.9 4.73741 155.354 5.28542C144.115 16.5862 132.866 27.8793 121.018 39.778Z" fill="#479CFC"/>
<path d="M37.2975 0.554833C37.6121 0.911482 38.2226 1.60427 39.094 2.59396C26.5222 14.9147 14.2279 26.9638 1.46357 39.4742C0.831433 38.7668 0.250158 38.1152 0 37.8358C12.4429 25.3978 24.499 13.3465 37.2975 0.554833Z" fill="#479CFC"/>
<path d="M156.309 56.8968C157.828 58.9221 156.896 60.1004 155.719 61.2678C152.124 64.8339 148.546 68.4174 144.965 71.9981C137.666 79.2962 130.363 86.5904 123.079 93.9051C121.749 95.2396 120.496 96.5391 118.917 94.2295C121.706 90.088 151.751 60.027 156.309 56.8968Z" fill="#479CFC"/>
<path d="M40.7472 39.183C40.5547 37.9178 40.1698 36.894 40.3369 35.9698C40.4522 35.3288 41.3118 34.8111 41.8627 34.261C52.7454 23.3823 63.6302 12.5044 74.5246 1.63734C74.9232 1.24074 75.4312 0.954512 76.1747 0.406442C76.8742 0.94866 77.5943 1.50555 78.0633 1.86703C65.7386 14.1918 53.5183 26.4118 40.7472 39.183Z" fill="#479CFC"/>
<path d="M234.568 0.312613C235.408 1.01315 235.984 1.49085 236.199 1.67458C223.938 13.9054 211.736 26.0797 198.996 38.7824C199.035 38.8313 198.527 38.125 198.058 37.4703C200.872 33.3554 225.081 8.73031 234.568 0.312613Z" fill="#479CFC"/>
<path d="M80.7003 38.5343C80.6231 38.4483 80.1217 37.8885 79.6489 37.36C82.3229 33.2986 104.497 10.6901 115.804 0.480593C116.498 0.908503 117.269 1.38334 117.602 1.58948C105.377 13.8282 93.2067 26.0133 80.7003 38.5343Z" fill="#479CFC"/>
<path d="M76.9094 57.2494C77.0657 57.3803 77.6412 57.8649 77.8728 58.0613C65.6144 70.3156 53.4138 82.5134 40.6993 95.223C40.6397 95.1565 40.0593 94.5079 39.8864 94.3154C52.3654 81.8227 64.4215 69.7519 76.9094 57.2494Z" fill="#479CFC"/>
<path d="M116.731 56.3721C116.828 58.032 117.166 59.1203 116.866 59.988C116.574 60.832 115.654 61.4759 114.967 62.1637C104.197 72.9389 93.4216 83.7092 82.6377 94.4707C82.2312 94.8771 81.7222 95.1799 80.7676 95.9068C80.369 94.7999 79.6813 93.8386 79.8279 93.0296C79.9793 92.1963 80.884 91.4509 81.5641 90.7708C92.4653 79.851 103.379 68.944 114.31 58.0525C114.816 57.5474 115.498 57.2182 116.731 56.3721Z" fill="#479CFC"/>
<path d="M239.521 39.2709C238.974 38.716 238.427 38.1718 237.938 37.6853C240.215 33.8154 269.436 4.35536 274.546 0.680862C276.178 1.56501 275.865 2.80878 275.054 4.03496C274.634 4.67581 273.999 5.17796 273.452 5.73002C262.676 16.4954 251.9 27.2598 241.123 38.0154C240.723 38.418 240.225 38.7258 239.521 39.2709Z" fill="#479CFC"/>
<path d="M275.172 55.827C275.338 57.9618 275.621 58.9105 275.406 59.7321C275.23 60.4102 274.517 60.9796 273.97 61.5277C262.666 72.853 251.353 84.1694 240.059 95.4741C238.32 94.4991 237.284 93.5212 238.896 91.8222C239.707 90.9732 240.537 90.1514 241.368 89.3229C251.03 79.6606 260.692 69.9952 270.365 60.3426C271.576 59.1332 272.856 57.993 275.172 55.827Z" fill="#479CFC"/>
</svg>
