<svg width="98" height="98" viewBox="0 0 98 98" fill="none" xmlns="http://www.w3.org/2000/svg">
<g id="hanger-fashion" clip-path="url(#clip0_14_128)">
<g id="Group">
<g id="Group_2">
<path id="Vector" d="M97.8411 75.925C97.5146 73.9668 96.2093 72.1718 94.5774 70.8664L55.7403 41.4877V33.0082C55.7403 30.5605 53.7821 28.6023 51.3344 28.6023H50.6817V25.1755C55.2508 24.3596 58.8409 20.4432 58.8409 15.5478C58.8409 10.1628 54.435 5.7569 49.05 5.7569C43.665 5.7569 39.2591 10.1628 39.2591 15.5478C39.2591 16.5269 39.9118 17.1795 40.8909 17.1795C41.87 17.1795 42.5226 16.5269 42.5226 15.5478C42.5226 11.9579 45.4599 9.02059 49.0498 9.02059C52.6397 9.02059 55.577 11.9579 55.577 15.5478C55.577 19.1377 52.6397 22.075 49.0498 22.075C48.0707 22.075 47.4181 22.8909 47.4181 23.87V28.6023H46.9285C44.4808 28.6023 42.5226 30.5605 42.5226 33.0082V41.2408L3.3591 70.8664C1.56404 72.1719 0.421838 73.9668 0.0954113 75.925C-0.231015 78.3727 0.258529 80.8204 1.89047 82.7786C3.52222 84.5737 5.80682 85.7159 8.25454 85.7159H21.3091C21.3091 89.3058 24.2464 92.243 27.8363 92.243C31.4262 92.243 34.3635 89.3058 34.3635 85.7159H63.7361C63.7361 89.3058 66.6734 92.243 70.2633 92.243C73.8532 92.243 76.7905 89.3058 76.7905 85.7159H89.8451C92.2928 85.7159 94.5774 84.5737 96.046 82.7786C97.678 80.8204 98.3306 78.3727 97.8411 75.925ZM45.623 33.0082C45.623 32.3556 46.1125 31.866 46.7652 31.866H48.2782C48.5017 31.9712 48.761 32.0292 49.0498 32.0292C49.311 32.0292 49.548 31.9697 49.7564 31.866H51.1711C51.8238 31.866 52.3133 32.3556 52.3133 33.0082V38.8828L50.5182 37.4141C50.1023 37.0814 49.559 36.9192 48.9968 36.9257C48.8381 36.9236 48.6796 36.9397 48.5232 36.9718C48.1382 37.041 47.7582 37.1871 47.4179 37.4141L45.6228 38.8828L45.623 33.0082ZM27.8363 88.9794C26.0412 88.9794 24.5726 87.5107 24.5726 85.7157V79.1885V75.9248C24.5726 74.1297 26.0412 72.6611 27.8363 72.6611C29.6314 72.6611 31.1 74.1297 31.1 75.9248V79.1885V85.7157C31.0998 87.5107 29.6312 88.9794 27.8363 88.9794ZM63.7361 75.925H34.3635C34.3635 72.3351 31.4262 69.3978 27.8363 69.3978C24.2464 69.3978 21.3091 72.3351 21.3091 75.925H13.15L49.0498 48.6736L84.9496 75.925H76.7905C76.7905 72.3351 73.8532 69.3978 70.2633 69.3978C66.6734 69.3978 63.7361 72.3349 63.7361 75.925ZM34.3635 82.4522V79.1885H63.7361V82.4522H34.3635ZM70.2633 88.9794C68.4682 88.9794 66.9996 87.5107 66.9996 85.7157V79.1885V75.9248C66.9996 74.1297 68.4682 72.6611 70.2633 72.6611C72.0584 72.6611 73.527 74.1297 73.527 75.9248V79.1885V85.7157C73.527 87.5107 72.0584 88.9794 70.2633 88.9794ZM93.5983 80.6571C92.6192 81.7993 91.3137 82.4522 89.8451 82.4522H76.7905V79.1885H89.8451H90.9873L91.8032 76.7408L50.192 45.2468C49.5393 44.7573 48.5603 44.7573 47.9074 45.2468L7.765 75.7617C7.11233 76.2512 6.78591 77.0672 7.11234 77.883C7.43876 78.6988 8.09142 79.1885 8.90739 79.1885H21.3091V82.4522H8.25454C6.78591 82.4522 5.48039 81.7995 4.50131 80.6571C3.52222 79.5147 3.19579 78.0463 3.52222 76.5776C3.68534 75.4354 4.33819 74.293 5.48039 73.4773L44.2439 44.1505L49.1299 40.5753L92.619 73.4773C93.5981 74.2932 94.4141 75.4354 94.5772 76.5776C94.9038 78.0463 94.5774 79.5149 93.5983 80.6571Z" fill="#333C4F"/>
</g>
</g>
</g>
<defs>
<clipPath id="clip0_14_128">
<rect width="98" height="98" fill="white"/>
</clipPath>
</defs>
</svg>
