<svg width="87" height="87" viewBox="0 0 87 87" fill="none" xmlns="http://www.w3.org/2000/svg">
<g id="leather" clip-path="url(#clip0_14_200)">
<g id="Group">
<g id="Group_2">
<g id="Group_3">
<path id="Vector" d="M79.3449 27.0651C79.7803 26.7748 79.9254 26.1944 79.7803 25.759V25.614C78.7645 20.6797 76.0071 16.3261 71.9438 13.2786C71.5084 12.9883 71.073 12.8432 70.4926 13.1335C65.4133 14.8749 61.35 14.8749 58.1574 12.9884C53.0781 9.94088 52.2074 2.68478 52.2074 2.68478C52.2074 2.10435 51.772 1.66899 51.1916 1.52375C46.2575 -0.507999 40.7429 -0.507999 35.6636 1.52375C35.2282 1.66882 34.7928 2.10418 34.7928 2.68478C34.7928 2.68478 33.9221 9.79565 28.8428 12.9884C25.6502 15.0202 21.4417 15.0202 16.3624 13.1335C15.927 12.8432 15.4916 12.9884 15.0563 13.2786C10.9929 16.3261 8.2357 20.6797 7.21974 25.6138V25.7588C7.21974 26.1942 7.36481 26.7746 7.6551 27.0649C12.0087 31.4186 14.4758 37.949 14.4758 44.9148C14.4758 51.8806 12.0087 58.4111 7.6551 62.7647C7.21974 63.055 7.07468 63.6354 7.21974 64.0708V64.2159C8.23553 69.1499 10.9929 73.5035 15.0563 76.5511C15.4916 76.8414 15.927 76.9865 16.3624 76.8414C17.2331 76.5511 35.5183 70.3109 42.1939 86.1291C42.3389 86.7095 42.9195 86.9998 43.4999 86.9998C44.0804 86.9998 44.661 86.7095 44.806 85.984C51.6268 70.3109 69.912 76.406 70.6375 76.6963C71.0729 76.9866 71.5082 76.8414 71.9436 76.5513C76.0069 73.5037 78.7643 69.1501 79.7801 64.216V64.071C79.7801 63.6356 79.6351 63.0552 79.3448 62.7649C70.3474 53.7673 70.3474 36.0625 79.3449 27.0651ZM70.7827 73.6489C67.0095 72.6332 51.1914 69.005 43.4999 82.2112C38.856 74.3746 31.3098 72.4881 25.2147 72.4881C21.1514 72.4881 17.6685 73.3588 16.2171 73.7942C13.3147 71.3271 11.1378 67.9894 10.2671 64.2162C14.7658 59.4272 17.378 52.4614 17.378 44.9152C17.378 37.3689 14.7658 30.4031 10.2671 25.4689C11.1378 21.6957 13.3147 18.358 16.2171 15.8909C21.8769 17.7774 26.6658 17.6324 30.439 15.3105C35.5183 12.1175 37.1147 6.02245 37.5501 3.70057C41.4684 2.39448 45.5317 2.39448 49.45 3.70057C49.8853 6.02245 51.4817 12.1175 56.5608 15.3103C60.334 17.6322 65.123 17.7774 70.7827 15.8907C73.8303 18.3578 75.862 21.6955 76.7328 25.4687C67.2998 35.6271 67.2998 53.9124 76.7328 64.071C75.862 67.844 73.8303 71.1818 70.7827 73.6489Z" fill="#333C4F"/>
<path id="Vector_2" d="M45.3866 71.7623C44.8062 72.3427 44.0805 72.7781 43.5001 73.3587C42.9197 72.7783 42.194 72.1977 41.6136 71.7623C40.8879 71.3269 40.0172 71.472 39.5818 72.0526C39.1465 72.633 39.2915 73.649 39.8721 74.0844C40.8879 74.6648 41.6136 75.3904 42.4843 76.2612C42.7746 76.5515 43.0647 76.6965 43.5001 76.6965C43.9355 76.6965 44.2258 76.5515 44.5159 76.2612C45.3866 75.5355 46.2573 74.81 47.1281 74.0844C47.7085 73.649 47.8537 72.6332 47.4184 72.0526C46.983 71.472 45.967 71.3269 45.3866 71.7623Z" fill="#333C4F"/>
<path id="Vector_3" d="M34.7928 68.2794C32.9063 67.5537 30.7295 67.1183 28.5527 66.9733C27.682 66.9733 27.1015 67.5537 26.9563 68.2794C26.8112 69.1501 27.5367 69.7305 28.2624 69.8757C30.2941 70.0208 32.1806 70.4562 33.9221 71.0368C34.0672 71.0368 34.2124 71.0368 34.3575 71.0368C34.9379 71.0368 35.5185 70.6014 35.6636 70.166C35.9537 69.2953 35.5183 68.5697 34.7928 68.2794Z" fill="#333C4F"/>
<path id="Vector_4" d="M21.0063 66.9733C19.9905 67.1183 18.9745 67.2636 18.1038 67.4086C17.5234 66.683 17.088 66.1025 16.7977 65.3769C17.3781 64.6512 17.9587 63.7805 18.5392 62.9098C18.8295 62.1841 18.6842 61.3134 17.9587 60.878C17.2331 60.5877 16.3623 60.733 15.927 61.4584C15.3466 62.4742 14.766 63.4902 14.0405 64.3609C13.7502 64.7963 13.7502 65.3767 13.8954 65.8121C14.4758 67.4085 15.3466 68.7146 16.5076 70.0206C16.6526 70.3109 17.088 70.456 17.5234 70.456C17.5234 70.456 17.6684 70.456 17.8137 70.456C18.9747 70.1657 20.1355 70.0206 21.2966 69.8756C22.1673 69.7305 22.7477 69.0049 22.6027 68.2792C22.4574 67.4086 21.877 66.8282 21.0063 66.9733Z" fill="#333C4F"/>
<path id="Vector_5" d="M21.5867 34.4663C21.4417 33.5955 20.571 33.1602 19.8453 33.4505C18.9746 33.5955 18.5392 34.4663 18.8295 35.1919C19.4099 37.0784 19.7002 39.1102 19.9905 41.1419C20.1356 41.8676 20.7162 42.448 21.4417 42.448C21.4417 42.448 21.5867 42.448 21.5867 42.5931C22.4575 42.448 23.0379 41.7224 22.8928 40.9967C22.6027 38.8199 22.1673 36.6431 21.5867 34.4663Z" fill="#333C4F"/>
<path id="Vector_6" d="M21.4416 47.3819C20.5709 47.2369 19.9905 47.9624 19.8452 48.688C19.7002 50.8649 19.2648 52.8966 18.6842 54.7831C18.5392 55.5088 18.9745 56.2343 19.7 56.5246C19.8451 56.5246 19.9903 56.5246 20.1354 56.5246C20.861 56.5246 21.4415 56.0892 21.4415 55.5088C22.0219 53.477 22.4573 51.1552 22.7476 48.9783C22.7477 48.1076 22.1673 47.5272 21.4416 47.3819Z" fill="#333C4F"/>
<path id="Vector_7" d="M18.3941 26.9199C17.9588 26.0491 17.3784 25.1784 16.7978 24.4527C17.0881 23.7271 17.5234 23.1467 17.9588 22.5662C18.9746 22.7113 19.9905 22.8565 20.8613 23.0016C21.5869 23.0016 22.3124 22.4212 22.4576 21.6955C22.4576 20.9698 21.8772 20.2444 21.0065 20.0991C19.9907 19.9541 18.8297 19.8088 17.6687 19.5187C17.0882 19.3736 16.5076 19.5187 16.2175 19.9541C15.2017 21.1151 14.331 22.5662 13.7504 24.0174C13.4601 24.4527 13.6053 25.0332 13.8954 25.4685C14.6211 26.3393 15.2015 27.3551 15.782 28.371C16.0723 28.8064 16.6527 29.0967 17.0881 29.0967C17.3784 29.0967 17.6685 29.0967 17.8137 28.9516C18.5392 28.5163 18.8295 27.6455 18.3941 26.9199Z" fill="#333C4F"/>
<path id="Vector_8" d="M33.9222 16.3261C32.3258 17.6322 30.5843 18.7932 28.5527 19.3736C27.8271 19.6639 27.3917 20.5346 27.682 21.2601C27.9723 21.8406 28.5527 22.2759 29.1332 22.2759C29.2782 22.2759 29.4235 22.2759 29.4235 22.2759C31.7453 21.4052 33.9222 20.2442 35.8088 18.5027C36.3893 17.9223 36.5345 17.0516 35.9539 16.471C35.3733 15.8907 34.5026 15.7456 33.9222 16.3261Z" fill="#333C4F"/>
<path id="Vector_9" d="M47.1281 7.03839C46.983 6.45796 46.5477 6.16766 45.9671 6.02259C44.3707 5.7323 42.6292 5.7323 40.8878 6.02259C40.3073 6.16766 39.872 6.45796 39.7267 7.03839C39.4364 8.19941 39.0011 9.2152 38.5657 10.231C38.2754 10.9567 38.5657 11.8274 39.2914 12.1175C39.4364 12.2626 39.7267 12.2626 39.8718 12.2626C40.4522 12.2626 40.8876 11.9723 40.8876 11.3918C41.323 10.5211 41.7583 9.50533 42.0486 8.6346C42.9193 8.48954 43.645 8.48954 44.5157 8.6346C44.9511 9.65039 45.2414 10.5211 45.6768 11.3918C45.9671 12.1175 46.8378 12.4076 47.5633 12.1175C48.2888 11.8274 48.5791 10.9565 48.2889 10.231C47.8537 9.2152 47.4184 8.19924 47.1281 7.03839Z" fill="#333C4F"/>
<path id="Vector_10" d="M57.8671 22.2761C58.4475 22.2761 59.0281 21.8408 59.1732 21.2603C59.4635 20.3896 59.0281 19.6639 58.3025 19.3738C56.2707 18.7934 54.5292 17.7774 52.933 16.3263C52.3526 15.8909 51.4819 15.8909 50.9013 16.4713C50.4659 17.0518 50.4659 17.9225 51.0463 18.5031C52.9329 20.2445 55.1097 21.5506 57.4317 22.2763C57.5768 22.2761 57.7219 22.2761 57.8671 22.2761Z" fill="#333C4F"/>
<path id="Vector_11" d="M66.139 23.0016C67.1548 23.0016 68.0255 22.7113 69.0415 22.5662C69.4768 23.1467 69.9122 23.7273 70.2025 24.4527C69.6221 25.1784 69.0415 26.0491 68.6061 26.9199C68.3158 27.6455 68.461 28.5163 69.1865 28.9516C69.4768 29.0967 69.6219 29.0967 69.9122 29.0967C70.3476 29.0967 70.7829 28.8064 71.0732 28.371C71.6536 27.3552 72.2342 26.3393 72.9597 25.4685C73.25 25.0332 73.25 24.4527 73.1048 24.0174C72.5244 22.5662 71.6536 21.1149 70.6377 19.9541C70.2023 19.5187 69.767 19.3736 69.1865 19.5187C68.0255 19.809 67.0097 19.9541 65.8487 20.0991C64.978 20.2442 64.3975 20.9698 64.5426 21.6955C64.6877 22.5662 65.2683 23.1468 66.139 23.0016Z" fill="#333C4F"/>
<path id="Vector_12" d="M65.4133 42.4479H65.5584C66.2841 42.4479 66.8645 42.0125 67.0095 41.1418C67.1546 38.965 67.59 36.9332 68.1706 35.0467C68.3156 34.321 67.8803 33.4503 67.1548 33.3053C66.4293 33.1602 65.7036 33.5956 65.4133 34.321C64.8329 36.3528 64.3975 38.6747 64.1072 40.8515C64.1072 41.5772 64.6877 42.3028 65.4133 42.4479Z" fill="#333C4F"/>
<path id="Vector_13" d="M66.8645 56.5246C67.0095 56.5246 67.1548 56.5246 67.1548 56.5246C68.0255 56.3795 68.4608 55.5088 68.1705 54.7831C67.5901 52.7514 67.2998 50.7198 67.0095 48.688C66.8645 47.8173 66.2839 47.2369 65.4131 47.382C64.5424 47.527 63.962 48.2527 64.107 48.9783C64.3973 51.1552 64.8327 53.332 65.4131 55.5088C65.7036 56.0892 66.284 56.5246 66.8645 56.5246Z" fill="#333C4F"/>
<path id="Vector_14" d="M68.6059 62.9099C69.0413 63.7807 69.6217 64.6514 70.2023 65.377C69.7669 66.1027 69.3316 66.8282 68.8962 67.4088C67.8804 67.2637 67.0097 67.1185 65.9937 66.9734C65.123 66.9734 64.5426 67.5539 64.3973 68.2795C64.3973 69.0052 64.9778 69.7307 65.7034 69.8759C66.8645 70.021 68.0253 70.1662 69.1863 70.4563C69.3314 70.4563 69.3314 70.4563 69.4766 70.4563C69.912 70.4563 70.3474 70.3113 70.6377 70.021C71.7987 68.7149 72.6694 67.4088 73.2498 65.8124C73.5401 65.377 73.3949 64.7966 73.1048 64.3613C72.3791 63.4905 71.7987 62.4747 71.2183 61.4588C70.7829 60.7331 69.9122 60.443 69.1865 60.8783C68.4608 61.3137 68.1705 62.1843 68.6059 62.9099Z" fill="#333C4F"/>
<path id="Vector_15" d="M58.4475 66.8282C56.2707 67.1185 54.239 67.5539 52.2074 68.1343C51.4817 68.4246 51.0464 69.2954 51.3367 70.0209C51.627 70.6013 52.2074 71.0366 52.7878 71.0366C52.9329 71.0366 53.0781 70.8916 53.0781 70.8916C54.8196 70.3112 56.7061 69.8758 58.7378 69.7306C59.6086 69.5855 60.189 68.8598 60.0439 68.1342C59.8987 67.2636 59.3183 66.8282 58.4475 66.8282Z" fill="#333C4F"/>
</g>
</g>
</g>
</g>
<defs>
<clipPath id="clip0_14_200">
<rect width="87" height="87" fill="white"/>
</clipPath>
</defs>
</svg>
