<svg width="92" height="92" viewBox="0 0 92 92" fill="none" xmlns="http://www.w3.org/2000/svg">
<g id="sewing" clip-path="url(#clip0_14_156)">
<g id="Group">
<g id="Group_2">
<path id="Vector" d="M91.5324 23.7459C90.9088 23.1223 89.9734 23.1223 89.3499 23.7459C83.9679 28.837 79.5358 29.4473 74.9143 25.4541L76.4106 24.2135C80.4639 20.0042 80.4639 13.3007 76.4106 9.24759C72.3572 5.19425 65.6537 5.19425 61.4447 9.40352L60.245 10.8542L58.6384 9.24759C54.4293 5.19425 47.7257 5.19425 43.6725 9.24759C41.6459 11.2742 40.5546 13.9245 40.5546 16.7305C40.5546 19.5366 41.6459 22.1869 43.6725 24.2135L46.7518 27.1697L24.7496 53.7743L19.5086 48.5333C15.2995 44.48 8.59585 44.48 4.54269 48.5333C2.51593 50.5599 1.42459 53.2102 1.42459 56.0163C1.42459 58.8224 2.51593 61.4727 4.54251 63.4992L11.2237 70.1294L0.33342 83.298C-0.134197 83.9215 -0.134197 84.701 0.489353 85.3245C0.801217 85.6364 1.1129 85.7922 1.5807 85.7922C1.89256 85.7922 2.36018 85.6362 2.51611 85.4803L15.6881 74.5593L24.9651 83.7656C25.277 84.0774 25.5887 84.2332 26.0565 84.2332C26.3684 84.2332 26.836 84.0773 27.1478 83.9213C27.7714 83.2978 27.7714 82.3624 27.1478 81.7388L18.0281 72.6191L37.7115 56.2992L42.4254 61.1604C44.452 63.187 47.1023 64.1224 49.5967 64.1224C52.5587 64.1224 55.3649 62.8753 57.5474 61.1604C61.6008 56.9512 61.6008 50.2477 57.5474 46.1945L54.003 42.7919L72.5121 27.4458C75.2398 29.9255 78.0856 31.2286 80.9319 31.2286C84.3615 31.2286 87.9472 29.5137 91.5327 25.9282C92.1559 25.3048 92.1559 24.3694 91.5324 23.7459ZM45.8548 22.031C44.4518 20.6279 43.6723 18.7571 43.6723 16.7305C43.6723 14.704 44.4518 12.8331 45.8548 11.4301C48.8168 8.4681 53.4937 8.4681 56.4557 11.4301L58.2689 13.2433L48.7238 24.7851L45.8548 22.031ZM6.72502 61.3167C5.32199 59.9137 4.54251 58.0429 4.54251 56.0163C4.54251 53.9897 5.32199 52.1189 6.72502 50.7159C9.68702 47.7539 14.3639 47.7539 17.3259 50.7159L22.7736 56.1636L13.1765 67.7683L6.72502 61.3167ZM13.2727 72.5412L13.4447 72.3333L13.4806 72.3689L13.2727 72.5412ZM15.3891 69.9807L60.4672 15.4416L64.3285 19.3029L62.8475 20.7839C62.224 21.4074 62.224 22.3428 62.8475 22.9664C63.1594 23.2783 63.4711 23.434 63.9389 23.434C64.4067 23.434 64.7183 23.2781 65.0302 22.9664L70.1747 17.8219C70.7983 17.1983 70.7983 16.2629 70.1747 15.6394C69.5512 15.0158 68.6157 15.0158 67.9922 15.6394L66.5112 17.1204L62.4426 13.0518L63.7829 11.4301C65.186 10.0271 67.0568 9.24759 69.0834 9.24759C71.1099 9.24759 72.8248 10.0271 74.2279 11.4301C75.6309 12.8331 76.4104 14.704 76.4104 16.7305C76.4104 18.7571 75.6309 20.6279 74.3838 21.875L15.8296 70.4213L15.3891 69.9807ZM55.3646 48.5333C58.1706 51.4953 58.1706 56.1722 55.3646 58.9783C52.5585 61.3167 47.7257 61.9403 44.7637 58.9783L40.1024 54.317L51.6085 44.7771L55.3646 48.5333Z" fill="#333C4F"/>
</g>
</g>
</g>
<defs>
<clipPath id="clip0_14_156">
<rect width="92" height="92" fill="white"/>
</clipPath>
</defs>
</svg>
